<svg xmlns="http://www.w3.org/2000/svg" width="53.835" height="48.57" viewBox="0 0 53.835 48.57">
  <g id="Group_608" data-name="Group 608" transform="translate(-840 -106.298)">
    <path id="Path_14790" data-name="Path 14790" d="M974.462,139.873c-39.318-10.341-22.931-32.575-22.931-32.575s6.083,6.466.134,19.8" transform="translate(-86.213)" fill="none" stroke="#aea17e" stroke-linecap="round" stroke-linejoin="round" stroke-width="2"/>
    <path id="Path_14791" data-name="Path 14791" d="M870.421,227.653c-3.711,5.266-10.663,8.371-20.645,9.047" transform="translate(-7.062 -96.843)" fill="none" stroke="#aea17e" stroke-linecap="round" stroke-linejoin="round" stroke-width="2"/>
    <path id="Path_14792" data-name="Path 14792" d="M979.231,297.479a18.478,18.478,0,0,0,24.754-4.573,18.481,18.481,0,0,0-24.823,4.531l-.027.036Z" transform="translate(-111.151 -146.992)" fill="none" stroke="#aea17e" stroke-linecap="round" stroke-linejoin="round" stroke-width="2"/>
    <path id="Path_14793" data-name="Path 14793" d="M865.754,299.252A18.478,18.478,0,0,1,841,294.679a18.481,18.481,0,0,1,24.823,4.53l.027.036Z" transform="translate(0 -148.419)" fill="none" stroke="#aea17e" stroke-linecap="round" stroke-linejoin="round" stroke-width="2"/>
  </g>
</svg>
