<svg xmlns="http://www.w3.org/2000/svg" width="195" height="313" viewBox="0 0 195 313">
  <g id="Group_733" data-name="Group 733" transform="translate(705 -408)">
    <g id="Rectangle_503" data-name="Rectangle 503" transform="translate(-705 408)" fill="none" stroke="#fff" stroke-width="2">
      <rect width="195" height="313" rx="92" stroke="none"/>
      <rect x="1" y="1" width="193" height="311" rx="91" fill="none"/>
    </g>
    <path id="Path_19726" data-name="Path 19726" d="M48.591-74.327a7.057,7.057,0,0,1,.439,7.16L33.619-36.97,14.175-69.032a5.583,5.583,0,0,1-.266-5.3H-.954l.182.107a20.456,20.456,0,0,1,7.072,7L26.886-33.281V-8.222a11.179,11.179,0,0,1-3.6,8.214H38.153a11.18,11.18,0,0,1-3.6-8.213V-35.428L49.944-65.577A20.456,20.456,0,0,1,57.776-73.9l.726-.428ZM117.677-55.79a33.756,33.756,0,0,0-7.734-9.828,39.415,39.415,0,0,0-4.224-3.221L103.4-70.192c-.77-.478-1.661-.8-2.514-1.236a34.067,34.067,0,0,0-9.7-2.749,27.031,27.031,0,0,0-3.725-.27h-.038a27.058,27.058,0,0,0-3.726.27A34.06,34.06,0,0,0,74-71.428c-.853.432-1.746.758-2.514,1.236L69.164-68.84a39.427,39.427,0,0,0-4.225,3.221,33.752,33.752,0,0,0-7.733,9.828,41.214,41.214,0,0,0,0,37.129,33.749,33.749,0,0,0,7.732,9.828,39.436,39.436,0,0,0,4.225,3.222l2.324,1.352c.77.479,1.661.8,2.514,1.236A34.1,34.1,0,0,0,83.7-.273,26.894,26.894,0,0,0,87.421,0h.038a27,27,0,0,0,3.724-.269,34.112,34.112,0,0,0,9.7-2.751c.853-.431,1.746-.757,2.514-1.236l2.324-1.352a39.424,39.424,0,0,0,4.224-3.222,33.756,33.756,0,0,0,7.734-9.828,41.22,41.22,0,0,0,0-37.129Zm-6.113,34.355a40.779,40.779,0,0,1-4.984,9.458A32.766,32.766,0,0,1,103.6-8.37l-1.783,1.6-.466.409L100.841-6l-1.057.731A22.49,22.49,0,0,1,87.7-1.556l-.247.016H87.43A22.675,22.675,0,0,1,75.193-5.216a21.209,21.209,0,0,1-2.062-1.5l-1.8-1.612a32.329,32.329,0,0,1-3.006-3.623,40.6,40.6,0,0,1-5-9.477,45.031,45.031,0,0,1,0-31.587,40.79,40.79,0,0,1,4.983-9.457,32.568,32.568,0,0,1,2.979-3.608l1.783-1.6.466-.409.511-.358,1.058-.73A22.491,22.491,0,0,1,87.186-72.9l.247-.016h.023a22.691,22.691,0,0,1,12.238,3.676,21.385,21.385,0,0,1,2.061,1.5l1.8,1.612a32.318,32.318,0,0,1,3.006,3.622,40.626,40.626,0,0,1,5,9.477,45.031,45.031,0,0,1,0,31.587Z" transform="translate(-668 569)" fill="#fff"/>
    <path id="Path_19727" data-name="Path 19727" d="M52.043-36.811A14.716,14.716,0,0,1,58.02-24.967V-8.426c-3.722,3.311-9.929,6.855-19.443,6.9h-.183a24.38,24.38,0,0,1-12.5-3.5A25.992,25.992,0,0,1,18.705-11.6a38.44,38.44,0,0,1-5.381-9.383,41.907,41.907,0,0,1,0-31.664,38.593,38.593,0,0,1,5.361-9.364,25.878,25.878,0,0,1,7.123-6.537,24.188,24.188,0,0,1,12.33-3.541l.25-.015h.018a14.629,14.629,0,0,1,6.54,1.534,19.321,19.321,0,0,1,8.085,7.575c.343.6,1.473.484,2.687-.244a11.828,11.828,0,0,0,2.1-1.621c1.013-.977,1.241-2.256.507-2.866a24.334,24.334,0,0,0-12.6-5.519,53.8,53.8,0,0,0-6.562-.372v-.006h-.782a29.321,29.321,0,0,0-3.7.244A36.964,36.964,0,0,0,24.793-70.8a36.049,36.049,0,0,0-9.321,5.563A32.86,32.86,0,0,0,7.35-55.552a39.522,39.522,0,0,0,0,37.48,32.851,32.851,0,0,0,8.122,9.686,36.039,36.039,0,0,0,9.321,5.563A36.964,36.964,0,0,0,34.67-.25a29.305,29.305,0,0,0,2.974.225v.019h1.52V-.019a32.947,32.947,0,0,0,11.867-2.32A14.261,14.261,0,0,1,65.628,0V-29.084a10.132,10.132,0,0,1,3.258-7.444l.3-.28ZM125.826-1.465a10.135,10.135,0,0,1-2.561-3.73L96.213-73.6,73.407-15.944v.006a22.876,22.876,0,0,0-1.533,6.124A16.069,16.069,0,0,0,75.456,1.678c.525.674,1.732.371,2.674-.658.128-.138.243-.292.365-.438l.013.011c.011,0,.011,0,.021.009l.395-.517.111-.152L79.441-.6l-.02-.02h-.006c.1-.157.222-.3.322-.468.747-1.216.963-2.242.5-2.481a11.105,11.105,0,0,1-5.584-6.465,7.982,7.982,0,0,1,.122-5.193c.014-.036.023-.072.037-.109l.01-.03,4.023-10.172c.465-.506,3.76-3.783,11.412-3.6a23.928,23.928,0,0,0,13.792-3.99l10.28,25.988A6.493,6.493,0,0,1,112.7.012h14.721Zm-35.534-29.2A19.046,19.046,0,0,0,79.93-28.316v-.008L92.94-61.213,103.466-34.6A22.483,22.483,0,0,1,90.292-30.669Z" transform="translate(-670 641)" fill="#fff"/>
  </g>
</svg>
